<?xml version="1.0" encoding="utf-8"?>
<!-- Generator: Adobe Illustrator 16.0.0, SVG Export Plug-In . SVG Version: 6.00 Build 0)  -->
<!DOCTYPE svg PUBLIC "-//W3C//DTD SVG 1.1//EN" "http://www.w3.org/Graphics/SVG/1.1/DTD/svg11.dtd">
<svg version="1.1" id="Layer_1" xmlns="http://www.w3.org/2000/svg" xmlns:xlink="http://www.w3.org/1999/xlink" x="0px" y="0px"
	 width="728px" height="445.478px" viewBox="0 0 728 445.478" enable-background="new 0 0 728 445.478" xml:space="preserve">
<g>
	<g>
		<polygon fill-rule="evenodd" clip-rule="evenodd" fill="#1DB7BF" points="357.382,63.651 361.784,42.157 353.474,32.742 
			344.413,28.835 334.468,34.344 334.468,44.467 343.704,45.177 345.657,42.691 342.815,36.828 348.128,39.315 348.128,49.62 
			339.972,50.507 328.962,45.001 326.472,32.742 334.821,22.265 355.962,22.265 370.349,38.96 370.349,65.073 		"/>
		<g>
			<path fill-rule="evenodd" clip-rule="evenodd" fill="#F8961D" d="M497.501,154.317c0.809,7.048-0.65,25.887-0.77,26.677
				c-1.934,12.933-6.555,24.893-13.266,36.034c-10.857,18.035-26.01,31.399-45.025,40.326c-11.781,5.531-24.199,8.521-37.246,9.387
				c-11.477,0.759-22.631-0.562-33.68-3.386c-2.018-0.517-3.943-0.497-5.943,0.064c-12.113,3.416-24.537,4.042-36.941,2.944
				c-18.521-1.64-35.479-8.016-50.512-19.041c-19.453-14.268-32.639-33.039-39.176-56.291c-1.498-5.317-2.287-10.866-2.973-16.361
				c-1.906-15.261-0.309-30.175,4.668-44.766c5.211-15.285,13.521-28.582,24.918-39.998c15.082-15.108,33.223-24.49,54.092-28.525
				c9.551-1.844,19.219-2.203,28.963-1.18c6.146,0.643,12.141,1.766,18.086,3.381c1.391,0.377,3.08,0.262,4.494-0.131
				c14.463-4.049,29.061-4.814,43.887-2.451c24.857,3.957,45.418,15.648,61.982,34.412c10.666,12.086,17.859,26.157,22.033,41.685
				C496.585,142.648,498.05,148.318,497.501,154.317z"/>
		</g>
		<path fill-rule="evenodd" clip-rule="evenodd" fill="#FEED4B" d="M363.522,204.906c2.449-5.131,4.639-9.71,6.826-14.293
			c0.305-0.637,0.486-1.345,0.863-1.933c0.705-1.103,1.734-1.296,2.705-0.439c0.686,0.604,1.145,1.46,1.713,2.196
			c2.879,3.721,5.758,7.44,8.893,11.489c3.395-4.909,6.518-9.428,9.83-14.227c3.502,2.496,6.92,4.93,10.553,7.521
			c1.846-4.45,3.639-8.776,5.568-13.435c4.283,1.401,7.803,3.753,11.873,5.881c1.787-2.689,3.584-5.28,5.246-7.951
			c1.424-2.289,1.619-2.358,4.264-1.509c2.221,0.717,4.512,1.225,6.15,1.657c2.887-0.82,2.559-4.441,5.539-4.17
			c0.184-0.216,0.365-0.431,0.549-0.646c-0.807,0.016-1.619,0.027-1.693,0.029c0.402-4.494,4.754-4.122,6.092-6.882
			c-0.148,4.209-2.277,7.731-3.596,11.501c-1.326,3.777-2.707,7.536-4.182,11.638c-3.492-0.612-6.797-1.189-10.484-1.837
			c-1.354,7.33-2.654,14.369-4.031,21.799c-4.295-1.27-7.859-3.646-12.199-5.209c-0.842,6-1.65,11.76-2.525,18.026
			c-5.297-2.729-10.188-5.246-15.473-7.966c-2.375,5.117-4.727,10.18-7.297,15.706c-4.26-5.22-8.234-10.087-12.514-15.327
			c-3.301,6.214-6.375,12.006-9.617,18.109c-3.811-4.916-7.348-9.479-11.123-14.345c-3.906,2.971-7.707,5.866-11.709,8.911
			c-3.986-4.519-7.793-8.833-11.779-13.35c-2.645,2.727-3.168,6.441-5.617,9.557c-2.252-4.881-4.402-9.551-6.742-14.624
			c-4.129,1.484-8.082,2.908-12.436,4.475c-0.627-5.009-1.223-9.745-1.863-14.886c-3.439,1.966-6.586,3.765-10.041,5.737
			c-0.746-1.926-1.455-3.647-2.082-5.396c-0.92-2.558-1.889-5.109-2.627-7.716c-0.561-1.994-1.639-3.39-3.572-4.02
			c-2.238-0.728-3.254-2.348-4.064-4.459c-1.059-2.756-2.551-5.345-3.975-8.251c2.381-0.499,3.033,1.029,3.646,2.447
			c0.914,0.051,1.623-1.436,2.506-0.098c0.775,1.18,1.691,2.276,2.434,3.474c0.73,1.191,1.684,1.575,2.998,1.2
			c2.154-0.619,4.318-1.22,6.469-1.852c1.549-0.451,2.602-0.129,3.531,1.382c2.414,3.927,5.02,7.731,7.563,11.578
			c0.646,0.978,1.332,1.928,2.184,3.165c5.01-3.301,9.898-6.533,14.973-9.883c4.322,5.031,8.533,9.938,12.982,15.121
			c3.316-3.976,6.469-7.756,9.834-11.789C353.218,195.648,358.187,200.112,363.522,204.906z"/>
		<path fill-rule="evenodd" clip-rule="evenodd" fill="#FEED4B" d="M276.864,135.411c4.639-11.294,9.109-22.166,13.748-33.465
			c5.877,4.188,10.711,9.002,15.965,13.293c5.311,4.33,10.436,8.885,15.637,13.351c5.152,4.424,10.295,8.858,16.1,13.854
			C316.626,146.302,296.757,142.895,276.864,135.411z"/>
		<path fill-rule="evenodd" clip-rule="evenodd" fill="#FEED4B" d="M390.431,142.406c16.105-13.768,31.588-27.005,47.504-40.61
			c4.951,11.352,9.34,22.384,13.971,33.629C432.093,142.992,412.112,146.211,390.431,142.406z"/>
	</g>
	<g>
		<path fill="#F8961D" d="M204.04,347.069c-1.063,2.683-2.684,5.022-4.867,7.018c-2.184,1.997-4.678,3.462-7.484,4.398
			c-2.809,0.936-5.896,1.403-9.264,1.403h-11.51v18.995v7.205h-19.65V375.89h8.422v-49.126h-8.422v-10.199h30.223
			c3.557,0,6.816,0.453,9.779,1.356c2.963,0.905,5.568,2.355,7.813,4.352c2.246,1.997,3.898,4.32,4.961,6.971
			c1.059,2.652,1.59,5.661,1.59,9.03C205.63,341.455,205.099,344.388,204.04,347.069z M193.56,332.986
			c-0.563-1.465-1.279-2.604-2.152-3.415c-0.936-0.873-2.277-1.559-4.023-2.059c-1.748-0.499-4.023-0.749-6.832-0.749h-9.637v22.926
			h9.637c2.559,0,4.693-0.249,6.41-0.749c1.715-0.498,3.135-1.185,4.258-2.059c0.998-0.81,1.777-1.855,2.34-3.135
			c0.561-1.277,0.842-2.915,0.842-4.912C194.401,336.401,194.12,334.453,193.56,332.986z"/>
		<path fill="#F8961D" d="M265.702,326.764V364.1c0,3.556-0.529,6.753-1.59,9.591c-1.063,2.84-2.713,5.319-4.959,7.439
			c-2.246,1.995-4.898,3.477-7.955,4.444c-3.057,0.967-6.455,1.45-10.199,1.45c-3.742,0-7.143-0.468-10.199-1.403
			s-5.707-2.433-7.953-4.491c-2.309-2.059-3.992-4.522-5.053-7.393c-1.063-2.868-1.592-6.082-1.592-9.638v-37.336h-8.141v-10.199
			h27.418v10.199h-8.049v37.897c0,2.121,0.281,3.883,0.844,5.286c0.561,1.404,1.371,2.543,2.432,3.416
			c1.061,0.998,2.434,1.763,4.117,2.292c1.686,0.531,3.711,0.796,6.082,0.796c2.559,0,4.664-0.265,6.316-0.796
			c1.652-0.529,3.01-1.23,4.07-2.105c0.998-0.872,1.779-1.995,2.34-3.368c0.563-1.371,0.842-3.149,0.842-5.334V323.77v-7.205h19.371
			v10.199H265.702z"/>
		<path fill="#F8961D" d="M343.274,386.089v-7.205v-41.359l-19.932,48.564h-5.053l-19.65-48.658v38.459h7.58v10.199h-17.967v-7.205
			v-52.12h-8.234v-10.199h21.242l20.023,48.377l19.838-48.377h21.336v10.199h-7.955v49.126h7.955v10.199H343.274z"/>
		<path fill="#F8961D" d="M424.589,347.069c-1.061,2.683-2.684,5.022-4.865,7.018c-2.186,1.997-4.68,3.462-7.486,4.398
			c-2.807,0.936-5.895,1.403-9.264,1.403h-11.51v18.995v7.205h-19.65V375.89h8.422v-49.126h-8.422v-10.199h30.225
			c3.555,0,6.814,0.453,9.777,1.356c2.963,0.905,5.568,2.355,7.814,4.352c2.246,1.997,3.898,4.32,4.959,6.971
			c1.061,2.652,1.592,5.661,1.592,9.03C426.181,341.455,425.649,344.388,424.589,347.069z M414.108,332.986
			c-0.561-1.465-1.279-2.604-2.152-3.415c-0.936-0.873-2.277-1.559-4.023-2.059c-1.746-0.499-4.023-0.749-6.83-0.749h-9.639v22.926
			h9.639c2.557,0,4.693-0.249,6.41-0.749c1.715-0.498,3.135-1.185,4.256-2.059c0.998-0.81,1.779-1.855,2.34-3.135
			c0.563-1.277,0.842-2.915,0.842-4.912C414.95,336.401,414.671,334.453,414.108,332.986z"/>
		<path fill="#F8961D" d="M440.308,383.095v-4.211V323.77h-8.42v-4.211h22.363v4.211h-8.703v25.92v29.194h8.797v4.211H440.308z
			 M476.241,383.095l-3.65-4.211l-26.387-29.194l26.387-25.92l4.211-4.211h8.703v4.211h-6.832l-25.732,25.452l27.043,29.662h6.83
			v4.211H476.241z"/>
		<path fill="#F8961D" d="M491.21,383.095v-4.211h7.953V323.77v-4.211h5.24v4.211v55.114h8.047v4.211H491.21z M499.069,314.786
			v-5.988h5.24v5.988H499.069z"/>
		<path fill="#F8961D" d="M568.501,323.77v60.167h-4.959l-38.271-58.67v53.617h8.982v4.211h-13.381v-4.211V323.77h-8.516v-4.211
			h14.973c3.055,4.866,6.113,9.654,9.17,14.363c3.055,4.711,6.113,9.343,9.17,13.896c3.119,4.617,6.207,9.28,9.264,13.989
			c3.057,4.711,6.113,9.498,9.17,14.363v-52.4v-4.211h12.633v4.211H568.501z"/>
	</g>
	<g>
		<path fill="#0E0D1B" d="M241.212,406.965v-2.588h-5.697v18.431h-4.332v-1.309h2.703v-17.122h-5.697v4.913h-1.338v-6.221h15.699
			v3.896H241.212z"/>
		<path fill="#0E0D1B" d="M254.874,422.808v-1.309v-9.04c0-0.775-0.203-1.366-0.609-1.773c-0.408-0.426-0.998-0.64-1.773-0.64
			c-0.814,0-1.686,0.232-2.617,0.697c-0.969,0.466-1.793,1.028-2.471,1.687v9.069h2.268v1.309h-3.721v-1.309h-0.059v-17.122h-2.5
			v-1.308h4.012v7.849c0.775-0.678,1.609-1.221,2.5-1.628c0.893-0.407,1.822-0.61,2.791-0.61c1.105,0,1.996,0.319,2.674,0.959
			c0.68,0.679,1.018,1.561,1.018,2.646v9.215h2.209v1.309H254.874z"/>
		<path fill="#0E0D1B" d="M260.544,416.267c0.096,1.628,0.648,2.966,1.656,4.012c1.086,1.144,2.48,1.716,4.186,1.716
			c0.291,0,0.635-0.049,1.033-0.146c0.396-0.097,0.77-0.199,1.119-0.306c0.348-0.106,0.773-0.257,1.279-0.45l0.348,1.104
			c-0.563,0.213-1.047,0.383-1.453,0.509s-0.844,0.242-1.309,0.349s-0.881,0.16-1.25,0.16c-2.055,0-3.75-0.688-5.086-2.064
			c-1.338-1.356-2.006-3.091-2.006-5.203c0-2.093,0.658-3.827,1.977-5.204c1.316-1.375,2.994-2.063,5.029-2.063
			c1.977,0,3.594,0.669,4.854,2.006c1.24,1.318,1.92,3.179,2.035,5.581H260.544z M269.642,411.354
			c-0.969-0.931-2.199-1.396-3.691-1.396c-1.57,0-2.869,0.571-3.895,1.715c-0.756,0.813-1.24,1.909-1.455,3.285h10.756
			C271.163,413.505,270.591,412.304,269.642,411.354z"/>
		<path fill="#0E0D1B" d="M298.218,404.377v17.122v1.309h-4.158v-1.309h2.529v-8.372h-10.785v8.372v1.309h-4.012v-1.309h2.385
			v-17.122h-2.412v-1.308h4.039v1.308v7.472h10.785v-7.472h-2.557v-1.308h6.568v1.308H298.218z"/>
		<path fill="#0E0D1B" d="M309.7,422.808v-1.947c-0.756,0.678-1.57,1.201-2.441,1.569c-0.932,0.388-1.773,0.581-2.529,0.581
			c-1.24,0-2.258-0.396-3.053-1.191c-0.814-0.814-1.221-1.773-1.221-2.878c0-1.221,0.465-2.229,1.395-3.023
			c0.949-0.813,2.199-1.221,3.75-1.221c0.543,0,1.182,0.087,1.92,0.262c0.717,0.174,1.443,0.465,2.18,0.872v-3.256
			c0-1.008-0.33-1.725-0.988-2.151c-0.68-0.445-1.57-0.669-2.674-0.669c-0.291,0-0.617,0.039-0.975,0.116
			c-0.359,0.078-0.693,0.16-1.004,0.247c-0.309,0.088-0.678,0.199-1.104,0.335l-0.379-0.901c0.445-0.175,0.844-0.32,1.193-0.437
			c0.348-0.116,0.73-0.218,1.146-0.305c0.418-0.087,0.811-0.131,1.178-0.131c1.668,0,2.938,0.319,3.809,0.959
			c0.873,0.64,1.309,1.618,1.309,2.937v8.924h2.297v1.309H309.7z M309.7,417.052c-0.582-0.368-1.182-0.658-1.803-0.872
			c-0.678-0.232-1.357-0.349-2.035-0.349c-1.221,0-2.17,0.31-2.848,0.93c-0.68,0.621-1.018,1.386-1.018,2.297
			c0,0.756,0.271,1.405,0.813,1.947c0.563,0.563,1.318,0.844,2.268,0.844c0.814,0,1.639-0.213,2.471-0.64
			c0.873-0.446,1.59-0.988,2.152-1.628V417.052z"/>
		<path fill="#0E0D1B" d="M316.53,422.808v-1.309v-17.122h-2.5v-1.308h4.012v18.43h2.471v1.309H316.53z"/>
		<path fill="#0E0D1B" d="M323.507,422.808v-1.309v-17.122h-2.5v-1.308h4.012v18.43h2.471v1.309H323.507z"/>
		<path fill="#0E0D1B" d="M339.642,421.121c-1.338,1.396-2.975,2.094-4.912,2.094c-1.959,0-3.586-0.698-4.885-2.094
			c-1.318-1.414-1.977-3.139-1.977-5.174c0-2.073,0.648-3.799,1.947-5.175c1.299-1.396,2.936-2.093,4.914-2.093
			c1.938,0,3.564,0.697,4.883,2.093c1.318,1.415,1.977,3.14,1.977,5.175S340.94,419.707,339.642,421.121z M338.565,411.732
			c-1.008-1.124-2.287-1.687-3.836-1.687c-1.551,0-2.82,0.553-3.809,1.657c-1.008,1.124-1.512,2.539-1.512,4.244
			s0.494,3.11,1.482,4.215c1.008,1.124,2.287,1.687,3.838,1.687c1.549,0,2.818-0.553,3.807-1.657
			c1.008-1.124,1.512-2.539,1.512-4.244S339.554,412.837,338.565,411.732z"/>
		<path fill="#0E0D1B" d="M361.589,410.365l-4.1,12.646h-1.395l-3.576-12.063l-3.459,12.063h-1.482l-3.924-12.646h-1.803v-1.308
			h2.85l0.377,1.308l3.168,10.35l3.285-10.35h-1.598v-1.308h5.203v1.308h-1.541l3.168,10.059l3.373-10.059l0.377-1.308h3.023v1.308
			H361.589z"/>
		<path fill="#0E0D1B" d="M365.253,416.267c0.096,1.628,0.648,2.966,1.656,4.012c1.086,1.144,2.48,1.716,4.186,1.716
			c0.291,0,0.635-0.049,1.033-0.146c0.396-0.097,0.77-0.199,1.119-0.306c0.348-0.106,0.773-0.257,1.279-0.45l0.348,1.104
			c-0.563,0.213-1.047,0.383-1.453,0.509s-0.844,0.242-1.309,0.349s-0.881,0.16-1.25,0.16c-2.055,0-3.75-0.688-5.086-2.064
			c-1.338-1.356-2.006-3.091-2.006-5.203c0-2.093,0.658-3.827,1.977-5.204c1.316-1.375,2.994-2.063,5.029-2.063
			c1.977,0,3.594,0.669,4.854,2.006c1.24,1.318,1.92,3.179,2.035,5.581H365.253z M374.351,411.354
			c-0.969-0.931-2.199-1.396-3.691-1.396c-1.57,0-2.869,0.571-3.895,1.715c-0.756,0.813-1.24,1.909-1.455,3.285h10.756
			C375.872,413.505,375.3,412.304,374.351,411.354z"/>
		<path fill="#0E0D1B" d="M381.298,416.267c0.098,1.628,0.65,2.966,1.658,4.012c1.084,1.144,2.48,1.716,4.186,1.716
			c0.291,0,0.635-0.049,1.031-0.146s0.771-0.199,1.119-0.306c0.35-0.106,0.775-0.257,1.279-0.45l0.35,1.104
			c-0.563,0.213-1.047,0.383-1.453,0.509c-0.408,0.126-0.844,0.242-1.309,0.349s-0.883,0.16-1.25,0.16
			c-2.055,0-3.75-0.688-5.088-2.064c-1.338-1.356-2.006-3.091-2.006-5.203c0-2.093,0.658-3.827,1.977-5.204
			c1.318-1.375,2.994-2.063,5.029-2.063c1.977,0,3.596,0.669,4.855,2.006c1.24,1.318,1.918,3.179,2.035,5.581H381.298z
			 M390.397,411.354c-0.969-0.931-2.199-1.396-3.691-1.396c-1.57,0-2.869,0.571-3.896,1.715c-0.756,0.813-1.24,1.909-1.453,3.285
			h10.756C391.919,413.505,391.347,412.304,390.397,411.354z"/>
		<path fill="#0E0D1B" d="M404.874,422.808v-1.309v-9.04c0-0.775-0.203-1.366-0.609-1.773c-0.408-0.426-0.988-0.64-1.744-0.64
			c-0.814,0-1.688,0.232-2.617,0.697c-0.949,0.485-1.764,1.047-2.441,1.687v9.069h2.238v1.309h-3.75v-1.309v-11.134h-2.5v-1.308
			h4.012v1.86c0.775-0.678,1.607-1.221,2.5-1.628c0.891-0.407,1.811-0.61,2.762-0.61c1.084,0,1.967,0.319,2.645,0.959
			c0.678,0.679,1.018,1.561,1.018,2.646v9.215h2.18v1.309H404.874z"/>
		<path fill="#0E0D1B" d="M430.774,406.965v-2.588h-5.697v18.431h-4.332v-1.309h2.705v-17.122h-5.699v4.913h-1.336v-6.221h15.697
			v3.896H430.774z"/>
		<path fill="#0E0D1B" d="M444.438,422.808v-1.309v-9.04c0-0.775-0.203-1.366-0.611-1.773c-0.406-0.426-0.998-0.64-1.773-0.64
			c-0.813,0-1.686,0.232-2.615,0.697c-0.969,0.466-1.793,1.028-2.471,1.687v9.069h2.268v1.309h-3.721v-1.309h-0.059v-17.122h-2.5
			v-1.308h4.012v7.849c0.773-0.678,1.607-1.221,2.5-1.628c0.891-0.407,1.82-0.61,2.791-0.61c1.104,0,1.994,0.319,2.674,0.959
			c0.678,0.679,1.018,1.561,1.018,2.646v9.215h2.209v1.309H444.438z"/>
		<path fill="#0E0D1B" d="M450.106,416.267c0.098,1.628,0.65,2.966,1.658,4.012c1.084,1.144,2.48,1.716,4.186,1.716
			c0.291,0,0.635-0.049,1.031-0.146s0.771-0.199,1.119-0.306c0.35-0.106,0.775-0.257,1.279-0.45l0.35,1.104
			c-0.563,0.213-1.047,0.383-1.453,0.509c-0.408,0.126-0.844,0.242-1.309,0.349s-0.883,0.16-1.25,0.16
			c-2.055,0-3.75-0.688-5.088-2.064c-1.338-1.356-2.006-3.091-2.006-5.203c0-2.093,0.658-3.827,1.977-5.204
			c1.318-1.375,2.994-2.063,5.029-2.063c1.977,0,3.596,0.669,4.855,2.006c1.24,1.318,1.918,3.179,2.035,5.581H450.106z
			 M459.206,411.354c-0.969-0.931-2.199-1.396-3.691-1.396c-1.57,0-2.869,0.571-3.896,1.715c-0.756,0.813-1.24,1.909-1.453,3.285
			h10.756C460.728,413.505,460.155,412.304,459.206,411.354z"/>
		<path fill="#0E0D1B" d="M482.374,422.808v-1.309v-9.04c0-0.756-0.193-1.347-0.582-1.773c-0.406-0.426-0.979-0.64-1.715-0.64
			c-0.814,0-1.666,0.223-2.559,0.669c-0.871,0.465-1.686,1.075-2.441,1.831v10.262h-1.512v-10.349c0-0.756-0.193-1.347-0.582-1.773
			c-0.367-0.426-0.949-0.64-1.744-0.64s-1.637,0.232-2.527,0.697c-0.951,0.485-1.764,1.047-2.443,1.687v9.069h2.268v1.309h-3.779
			v-1.309v-11.134h-2.5v-1.308h4.012v1.86c0.756-0.697,1.551-1.24,2.385-1.628c0.891-0.407,1.791-0.61,2.703-0.61
			c0.873,0,1.617,0.203,2.238,0.61s1.057,1.027,1.309,1.86c0.523-0.581,1.316-1.144,2.383-1.686c1.008-0.523,1.957-0.785,2.85-0.785
			c1.143,0,2.055,0.319,2.732,0.959c0.678,0.679,1.018,1.561,1.018,2.646v9.215h2.15v1.309H482.374z"/>
		<path fill="#0E0D1B" d="M488.015,416.267c0.096,1.628,0.648,2.966,1.656,4.012c1.086,1.144,2.48,1.716,4.186,1.716
			c0.291,0,0.635-0.049,1.033-0.146c0.396-0.097,0.77-0.199,1.119-0.306c0.348-0.106,0.773-0.257,1.279-0.45l0.348,1.104
			c-0.563,0.213-1.047,0.383-1.453,0.509s-0.844,0.242-1.309,0.349s-0.881,0.16-1.25,0.16c-2.055,0-3.75-0.688-5.086-2.064
			c-1.338-1.356-2.006-3.091-2.006-5.203c0-2.093,0.658-3.827,1.977-5.204c1.316-1.375,2.994-2.063,5.029-2.063
			c1.977,0,3.594,0.669,4.854,2.006c1.24,1.318,1.92,3.179,2.035,5.581H488.015z M497.112,411.354
			c-0.969-0.931-2.199-1.396-3.691-1.396c-1.57,0-2.869,0.571-3.895,1.715c-0.756,0.813-1.24,1.909-1.455,3.285h10.756
			C498.634,413.505,498.062,412.304,497.112,411.354z"/>
	</g>
	<g>
		<path fill-rule="evenodd" clip-rule="evenodd" fill="#0E0D1B" d="M213.136,415.543c0,2.487-2.016,4.504-4.502,4.504
			c-2.482,0-4.496-2.017-4.496-4.504c0-2.479,2.014-4.496,4.496-4.496C211.12,411.047,213.136,413.063,213.136,415.543z"/>
		<path fill-rule="evenodd" clip-rule="evenodd" fill="#0E0D1B" d="M524.79,415.543c0,2.487-2.014,4.504-4.5,4.504
			c-2.482,0-4.498-2.017-4.498-4.504c0-2.479,2.016-4.496,4.498-4.496C522.776,411.047,524.79,413.063,524.79,415.543z"/>
	</g>
</g>
</svg>
